{
	"asset":{
		"generator":"Khronos glTF Blender I/O v4.0.43",
		"version":"2.0"
	},
	"scene":0,
	"scenes":[
		{
			"name":"Scene",
			"nodes":[
				0
			]
		}
	],
	"nodes":[
		{
			"mesh":0,
			"name":"Text"
		}
	],
	"materials":[
		{
			"doubleSided":true,
			"name":"Material.001",
			"pbrMetallicRoughness":{
				"baseColorTexture":{
					"index":0
				},
				"metallicFactor":0,
				"roughnessFactor":0.5
			}
		}
	],
	"meshes":[
		{
			"extras":{
				"targetNames":[
					"Key 1"
				]
			},
			"name":"Text",
			"primitives":[
				{
					"attributes":{
						"POSITION":0,
						"NORMAL":1,
						"TEXCOORD_0":2
					},
					"indices":3,
					"material":0,
					"targets":[
						{
							"POSITION":4,
							"NORMAL":5
						}
					]
				}
			],
			"weights":[
				0
			]
		}
	],
	"textures":[
		{
			"sampler":0,
			"source":0
		}
	],
	"images":[
		{
			"mimeType":"image/png",
			"name":"YzHPC",
			"uri":"TEXTURES/YzHPC.png"
		}
	],
	"accessors":[
		{
			"bufferView":0,
			"componentType":5126,
			"count":405,
			"max":[
				0.7637942433357239,
				1.0208806991577148,
				0.0065142810344696045
			],
			"min":[
				-1.0853575468063354,
				0.3384605050086975,
				-0.1352299153804779
			],
			"type":"VEC3"
		},
		{
			"bufferView":1,
			"componentType":5126,
			"count":405,
			"type":"VEC3"
		},
		{
			"bufferView":2,
			"componentType":5126,
			"count":405,
			"type":"VEC2"
		},
		{
			"bufferView":3,
			"componentType":5123,
			"count":936,
			"type":"SCALAR"
		},
		{
			"bufferView":4,
			"componentType":5126,
			"count":405,
			"max":[
				0.0641113892197609,
				0.06442999839782715,
				0.061188727617263794
			],
			"min":[
				-0.06058607995510101,
				-0.055133938789367676,
				-0.06274040788412094
			],
			"type":"VEC3"
		},
		{
			"bufferView":5,
			"componentType":5126,
			"count":405,
			"type":"VEC3"
		}
	],
	"bufferViews":[
		{
			"buffer":0,
			"byteLength":4860,
			"byteOffset":0,
			"target":34962
		},
		{
			"buffer":0,
			"byteLength":4860,
			"byteOffset":4860,
			"target":34962
		},
		{
			"buffer":0,
			"byteLength":3240,
			"byteOffset":9720,
			"target":34962
		},
		{
			"buffer":0,
			"byteLength":1872,
			"byteOffset":12960,
			"target":34963
		},
		{
			"buffer":0,
			"byteLength":4860,
			"byteOffset":14832,
			"target":34962
		},
		{
			"buffer":0,
			"byteLength":4860,
			"byteOffset":19692,
			"target":34962
		}
	],
	"samplers":[
		{
			"magFilter":9729,
			"minFilter":9987
		}
	],
	"buffers":[
		{
			"byteLength":24552,
			"uri":"untitled.bin"
		}
	]
}
