{
	"asset":{
		"generator":"Khronos glTF Blender I/O v4.0.43",
		"version":"2.0"
	},
	"scene":0,
	"scenes":[
		{
			"name":"Scene",
			"nodes":[
				0,
				1,
				2,
				3
			]
		}
	],
	"nodes":[
		{
			"mesh":0,
			"name":"t lowercase",
			"translation":[
				0.618347704410553,
				0.5052212476730347,
				-0.06556258350610733
			]
		},
		{
			"mesh":1,
			"name":"x",
			"translation":[
				0.18079255521297455,
				0.569305419921875,
				-0.06562383472919464
			]
		},
		{
			"mesh":2,
			"name":"e",
			"translation":[
				-0.3041552007198334,
				0.5704340934753418,
				-0.0654636025428772
			]
		},
		{
			"mesh":3,
			"name":"t",
			"translation":[
				-0.8425652980804443,
				0.8292711973190308,
				-0.06732214242219925
			]
		}
	],
	"materials":[
		{
			"doubleSided":true,
			"name":"Woven",
			"normalTexture":{
				"index":0
			},
			"pbrMetallicRoughness":{
				"baseColorTexture":{
					"index":1
				},
				"metallicFactor":0,
				"metallicRoughnessTexture":{
					"index":2
				}
			}
		}
	],
	"meshes":[
		{
			"extras":{
				"targetNames":[
					"Key 1"
				]
			},
			"name":"Text",
			"primitives":[
				{
					"attributes":{
						"POSITION":0,
						"NORMAL":1,
						"TEXCOORD_0":2
					},
					"indices":3,
					"material":0,
					"targets":[
						{
							"POSITION":4,
							"NORMAL":5
						}
					]
				}
			],
			"weights":[
				0.9990000128746033
			]
		},
		{
			"extras":{
				"targetNames":[
					"Key 1"
				]
			},
			"name":"Text.001",
			"primitives":[
				{
					"attributes":{
						"POSITION":6,
						"NORMAL":7,
						"TEXCOORD_0":8
					},
					"indices":9,
					"material":0,
					"targets":[
						{
							"POSITION":10,
							"NORMAL":11
						}
					]
				}
			],
			"weights":[
				0.9990000128746033
			]
		},
		{
			"extras":{
				"targetNames":[
					"Key 1"
				]
			},
			"name":"Text.002",
			"primitives":[
				{
					"attributes":{
						"POSITION":12,
						"NORMAL":13,
						"TEXCOORD_0":14
					},
					"indices":15,
					"material":0,
					"targets":[
						{
							"POSITION":16,
							"NORMAL":17
						}
					]
				}
			],
			"weights":[
				0.9990000128746033
			]
		},
		{
			"extras":{
				"targetNames":[
					"Key 1"
				]
			},
			"name":"Text.003",
			"primitives":[
				{
					"attributes":{
						"POSITION":18,
						"NORMAL":19,
						"TEXCOORD_0":20
					},
					"indices":21,
					"material":0,
					"targets":[
						{
							"POSITION":22,
							"NORMAL":23
						}
					]
				}
			],
			"weights":[
				0.9990000128746033
			]
		}
	],
	"textures":[
		{
			"sampler":0,
			"source":0
		},
		{
			"sampler":0,
			"source":1
		},
		{
			"sampler":0,
			"source":2
		}
	],
	"images":[
		{
			"mimeType":"image/png",
			"name":"fabrics_0060_normal_direct_1k",
			"uri":"TEXTURES/fabrics_0060_normal_direct_1k.png"
		},
		{
			"mimeType":"image/jpeg",
			"name":"fabrics_0060_color_1k",
			"uri":"TEXTURES/fabrics_0060_color_1k.jpg"
		},
		{
			"mimeType":"image/png",
			"name":"fabrics_0060_roughness_1k",
			"uri":"TEXTURES/fabrics_0060_roughness_1k.png"
		}
	],
	"accessors":[
		{
			"bufferView":0,
			"componentType":5126,
			"count":103,
			"max":[
				0.1454465389251709,
				0.3307453393936157,
				0.06830721348524094
			],
			"min":[
				-0.16675278544425964,
				-0.16676074266433716,
				-0.06916851550340652
			],
			"type":"VEC3"
		},
		{
			"bufferView":1,
			"componentType":5126,
			"count":103,
			"type":"VEC3"
		},
		{
			"bufferView":2,
			"componentType":5126,
			"count":103,
			"type":"VEC2"
		},
		{
			"bufferView":3,
			"componentType":5123,
			"count":252,
			"type":"SCALAR"
		},
		{
			"componentType":5126,
			"count":103,
			"max":[
				0,
				0,
				0
			],
			"min":[
				0,
				0,
				0
			],
			"sparse":{
				"count":1,
				"indices":{
					"bufferView":4,
					"componentType":5121
				},
				"values":{
					"bufferView":5
				}
			},
			"type":"VEC3"
		},
		{
			"bufferView":6,
			"componentType":5126,
			"count":103,
			"type":"VEC3"
		},
		{
			"bufferView":7,
			"componentType":5126,
			"count":50,
			"max":[
				0.19226311147212982,
				0.2130192518234253,
				0.06565394997596741
			],
			"min":[
				-0.1899169534444809,
				-0.21850261092185974,
				-0.06960608065128326
			],
			"type":"VEC3"
		},
		{
			"bufferView":8,
			"componentType":5126,
			"count":50,
			"type":"VEC3"
		},
		{
			"bufferView":9,
			"componentType":5126,
			"count":50,
			"type":"VEC2"
		},
		{
			"bufferView":10,
			"componentType":5123,
			"count":114,
			"type":"SCALAR"
		},
		{
			"componentType":5126,
			"count":50,
			"max":[
				0,
				0,
				0
			],
			"min":[
				0,
				0,
				0
			],
			"sparse":{
				"count":1,
				"indices":{
					"bufferView":11,
					"componentType":5121
				},
				"values":{
					"bufferView":12
				}
			},
			"type":"VEC3"
		},
		{
			"bufferView":13,
			"componentType":5126,
			"count":50,
			"type":"VEC3"
		},
		{
			"bufferView":14,
			"componentType":5126,
			"count":208,
			"max":[
				0.19978651404380798,
				0.23327159881591797,
				0.07048006355762482
			],
			"min":[
				-0.1939544677734375,
				-0.2318289875984192,
				-0.06912794709205627
			],
			"type":"VEC3"
		},
		{
			"bufferView":15,
			"componentType":5126,
			"count":208,
			"type":"VEC3"
		},
		{
			"bufferView":16,
			"componentType":5126,
			"count":208,
			"type":"VEC2"
		},
		{
			"bufferView":17,
			"componentType":5123,
			"count":480,
			"type":"SCALAR"
		},
		{
			"componentType":5126,
			"count":208,
			"max":[
				0,
				0,
				0
			],
			"min":[
				0,
				0,
				0
			],
			"sparse":{
				"count":1,
				"indices":{
					"bufferView":18,
					"componentType":5121
				},
				"values":{
					"bufferView":19
				}
			},
			"type":"VEC3"
		},
		{
			"bufferView":20,
			"componentType":5126,
			"count":208,
			"type":"VEC3"
		},
		{
			"bufferView":21,
			"componentType":5126,
			"count":44,
			"max":[
				0.24820220470428467,
				0.19160950183868408,
				0.07383642345666885
			],
			"min":[
				-0.2427922487258911,
				-0.43283915519714355,
				-0.06460990756750107
			],
			"type":"VEC3"
		},
		{
			"bufferView":22,
			"componentType":5126,
			"count":44,
			"type":"VEC3"
		},
		{
			"bufferView":23,
			"componentType":5126,
			"count":44,
			"type":"VEC2"
		},
		{
			"bufferView":24,
			"componentType":5123,
			"count":90,
			"type":"SCALAR"
		},
		{
			"componentType":5126,
			"count":44,
			"max":[
				0,
				0,
				0
			],
			"min":[
				0,
				0,
				0
			],
			"sparse":{
				"count":1,
				"indices":{
					"bufferView":25,
					"componentType":5121
				},
				"values":{
					"bufferView":26
				}
			},
			"type":"VEC3"
		},
		{
			"bufferView":27,
			"componentType":5126,
			"count":44,
			"type":"VEC3"
		}
	],
	"bufferViews":[
		{
			"buffer":0,
			"byteLength":1236,
			"byteOffset":0,
			"target":34962
		},
		{
			"buffer":0,
			"byteLength":1236,
			"byteOffset":1236,
			"target":34962
		},
		{
			"buffer":0,
			"byteLength":824,
			"byteOffset":2472,
			"target":34962
		},
		{
			"buffer":0,
			"byteLength":504,
			"byteOffset":3296,
			"target":34963
		},
		{
			"buffer":0,
			"byteLength":1,
			"byteOffset":3800
		},
		{
			"buffer":0,
			"byteLength":12,
			"byteOffset":3804
		},
		{
			"buffer":0,
			"byteLength":1236,
			"byteOffset":3816,
			"target":34962
		},
		{
			"buffer":0,
			"byteLength":600,
			"byteOffset":5052,
			"target":34962
		},
		{
			"buffer":0,
			"byteLength":600,
			"byteOffset":5652,
			"target":34962
		},
		{
			"buffer":0,
			"byteLength":400,
			"byteOffset":6252,
			"target":34962
		},
		{
			"buffer":0,
			"byteLength":228,
			"byteOffset":6652,
			"target":34963
		},
		{
			"buffer":0,
			"byteLength":1,
			"byteOffset":6880
		},
		{
			"buffer":0,
			"byteLength":12,
			"byteOffset":6884
		},
		{
			"buffer":0,
			"byteLength":600,
			"byteOffset":6896,
			"target":34962
		},
		{
			"buffer":0,
			"byteLength":2496,
			"byteOffset":7496,
			"target":34962
		},
		{
			"buffer":0,
			"byteLength":2496,
			"byteOffset":9992,
			"target":34962
		},
		{
			"buffer":0,
			"byteLength":1664,
			"byteOffset":12488,
			"target":34962
		},
		{
			"buffer":0,
			"byteLength":960,
			"byteOffset":14152,
			"target":34963
		},
		{
			"buffer":0,
			"byteLength":1,
			"byteOffset":15112
		},
		{
			"buffer":0,
			"byteLength":12,
			"byteOffset":15116
		},
		{
			"buffer":0,
			"byteLength":2496,
			"byteOffset":15128,
			"target":34962
		},
		{
			"buffer":0,
			"byteLength":528,
			"byteOffset":17624,
			"target":34962
		},
		{
			"buffer":0,
			"byteLength":528,
			"byteOffset":18152,
			"target":34962
		},
		{
			"buffer":0,
			"byteLength":352,
			"byteOffset":18680,
			"target":34962
		},
		{
			"buffer":0,
			"byteLength":180,
			"byteOffset":19032,
			"target":34963
		},
		{
			"buffer":0,
			"byteLength":1,
			"byteOffset":19212
		},
		{
			"buffer":0,
			"byteLength":12,
			"byteOffset":19216
		},
		{
			"buffer":0,
			"byteLength":528,
			"byteOffset":19228,
			"target":34962
		}
	],
	"samplers":[
		{
			"magFilter":9729,
			"minFilter":9987
		}
	],
	"buffers":[
		{
			"byteLength":19756,
			"uri":"untitled.bin"
		}
	]
}
